<svg xmlns="http://www.w3.org/2000/svg" viewBox="0 0 560 560" width="256" height="256">
	<style>
		tspan { white-space:pre }
		.background { fill: #ffffff;
					  opacity: 0.0 } 
		.D { fill: #4d4d4d } 
		.G { fill: #fc7233 } 
		@media (prefers-color-scheme: dark) {
	      .D { fill: #ffffff } 
	    }
	</style>
	<path id="background" class="background" d="M-0.11 107.91L559.67 107.38L560 453.33L0.21 453.86L-0.11 107.91Z" />
	<path id="D" class="D" d="M386.99 107.43L320.11 107.21L320.11 186.9L169.27 186.9C144.98 186.9 121.67 196.55 104.49 213.74C87.31 230.92 77.65 254.22 77.65 278.52C77.65 302.82 87.31 326.12 104.49 343.31C121.67 360.49 144.98 370.14 169.27 370.14L235.05 370.14L235.05 321.13L169.27 321.13C145.87 321.13 126.44 302.15 126.44 278.74C126.45 273.12 127.56 267.55 129.71 262.36C131.87 257.16 135.02 252.44 139 248.47C142.97 244.49 147.69 241.34 152.89 239.18C158.08 237.03 163.65 235.92 169.27 235.91L320.25 235.91L320.25 453.52L386.56 453.52C481.98 453.52 560 375.88 560 280.48C560 185.07 482.41 107.43 386.99 107.43Z" />
	<path id="G" class="G" d="M128.33 107.08L0 107L0 228.47C4.41 213.68 10.74 199.53 18.82 186.38C26.91 173.23 36.69 161.19 47.9 150.58C59.12 139.97 71.68 130.88 85.25 123.54C98.83 116.19 113.32 110.66 128.33 107.08L128.33 107.08Z" />
	<path id="G" class="G" d="M0 328.88L0 453.54C0.68 453.76 145.2 453.52 145.2 453.52C128.49 451.2 112.19 446.5 96.81 439.56C81.42 432.62 67.11 423.51 54.31 412.52C41.5 401.53 30.33 388.76 21.14 374.61C11.95 360.45 4.83 345.05 0 328.88L0 328.88Z" />
</svg>