<svg xmlns="http://www.w3.org/2000/svg" viewBox="0 0 960 560" width="960" height="560">
	<style>
		tspan { white-space:pre }
		.shp0 { fill: #4d4d4d } 
		.shp1 { fill: #fc7233 } 
	</style>
	<path id="Layer" class="shp0" d="M578.7 62.88L527.8 62.71L527.8 123.36L413 123.36C394.51 123.36 376.77 130.71 363.69 143.78C350.62 156.86 343.27 174.6 343.27 193.09C343.27 211.58 350.62 229.32 363.69 242.4C376.77 255.47 394.51 262.82 413 262.82L463.06 262.82L463.06 225.52L413 225.52C395.19 225.52 380.4 211.07 380.4 193.26C380.4 188.98 381.25 184.74 382.89 180.79C384.53 176.84 386.93 173.24 389.96 170.22C392.98 167.19 396.58 164.79 400.53 163.15C404.48 161.51 408.72 160.66 413 160.66L527.9 160.66L527.9 326.28L578.37 326.28C650.99 326.28 710.37 267.19 710.37 194.58C710.37 121.97 651.32 62.88 578.7 62.88Z" />
	<path id="Layer" class="shp1" d="M379.84 62.61L282.17 62.55L282.17 155C285.53 143.74 290.34 132.97 296.5 122.96C302.65 112.95 310.09 103.79 318.63 95.72C327.16 87.65 336.72 80.73 347.05 75.14C357.39 69.55 368.41 65.33 379.84 62.61L379.84 62.61Z" />
	<path id="Layer" class="shp1" d="M284.17 231.42L284.17 326.24C284.69 326.41 394.68 326.28 394.68 326.28C381.96 324.51 369.56 320.93 357.85 315.65C346.14 310.37 335.25 303.44 325.5 295.07C315.75 286.71 307.25 276.99 300.26 266.22C293.27 255.44 287.85 243.73 284.17 231.42L284.17 231.42Z" />
	<path id="Layer" class="shp1" d="M123.52 400.19C119.12 396 112.52 393.85 106.74 393.85C93.13 393.85 84.23 401.63 84.23 417.28C84.23 427.51 89.85 440.28 106.74 440.28C108.11 440.33 109.47 440.27 110.83 440.08C112.18 439.89 113.51 439.58 114.81 439.15C116.11 438.73 117.37 438.18 118.57 437.54C119.77 436.89 120.91 436.13 121.98 435.28L121.98 423.83L104.9 423.83L104.9 410.53L135.8 410.53L135.8 441.74C129.66 450.53 119.8 455.04 106.64 455.04C79 455 68.57 435.91 68.57 417.28C68.57 397.13 80.44 379.22 106.74 379.22C116.46 379.22 125.26 381.88 133.44 390.22L123.52 400.19Z" />
	<path id="Layer" fill-rule="evenodd" class="shp1" d="M198.19 440.71L161.46 440.71L156.24 453L139.05 453L171.18 381.38L188.57 381.38L220.7 453L203.41 453L198.19 440.71ZM179.88 397.53L167.5 426.59L192.15 426.59L179.88 397.53Z" />
	<path id="Layer" fill-rule="evenodd" class="shp1" d="M291.79 453L274.09 453L255.78 429.47L244.21 429.47L244.21 453L228.21 453L228.21 381.37L262.21 381.37C279.5 381.37 288.71 392.93 288.71 405.51C288.61 414.83 285.85 423.12 272.14 428.03L291.78 451.76L291.79 453ZM244.21 395.09L244.21 416L262.43 416C269.79 416 272.97 410.47 272.97 406C272.86 401.09 269.69 395.16 262.22 395.16L244.21 395.09Z" />
	<path id="Layer" fill-rule="evenodd" class="shp1" d="M366 453L348.3 453L329.99 429.47L318.37 429.47L318.37 453L302.37 453L302.37 381.37L336.37 381.37C353.66 381.37 362.87 392.93 362.87 405.51C362.77 414.83 360.01 423.12 346.3 428.03L366 451.76L366 453ZM318.42 395.09L318.42 416L336.64 416C344 416 347.18 410.47 347.18 406C347.07 401.09 343.9 395.16 336.43 395.16L318.42 395.09Z" />
	<path id="Layer" class="shp1" d="M431.11 453L376.57 453L376.57 381.37L429.67 381.37L429.67 396L392.23 396L392.23 409.81L427.53 409.81L427.53 423.81L392.23 423.81L392.23 438.24L431.11 438.24L431.11 453Z" />
	<path id="Layer" class="shp1" d="M459.23 395.59L437.43 395.59L437.43 381.37L496.88 381.37L496.88 395.59L475.09 395.59L475.09 453L459.23 453L459.23 395.59Z" />
	<path id="Layer" class="shp1" d="M522.14 395.59L500.35 395.59L500.35 381.37L559.79 381.37L559.79 395.59L538 395.59L538 453L522.14 453L522.14 395.59Z" />
	<path id="Layer" fill-rule="evenodd" class="shp0" d="M620.34 381.37C645 381.37 655.95 397.94 655.95 416.67C655.95 435.4 645.41 453 620.34 453L591 453L591 381.37L620.34 381.37ZM606.73 438.26L620.34 438.26C635.89 438.26 640.19 426.8 640.19 416.46C640.19 406.12 635.28 395.8 620.34 395.8L606.73 395.8L606.73 438.26Z" />
	<path id="Layer" fill-rule="evenodd" class="shp0" d="M702.58 454.73C679.67 454.73 663.91 440.51 663.91 417.18C663.91 393.85 679.67 379.63 702.58 379.63C725.49 379.63 741.26 393.85 741.26 417.18C741.26 440.51 725.51 454.73 702.58 454.73ZM702.58 393.95C688.98 393.95 679.58 404.18 679.58 417.18C679.58 430.58 689 440.3 702.58 440.3C716.5 440.3 725.58 430.48 725.58 417.18C725.61 404.08 716.5 394 702.58 394L702.58 393.95Z" />
	<path id="Layer" class="shp0" d="M826.58 452.89L813.48 452.89L798.13 412.89L783.3 452.89L770.2 452.89L743.49 381.37L761.4 381.37L770.3 405.82L776.75 429L792.81 381.42L803.25 381.42L820 429L826.14 406L834.63 381.45L852.53 381.45L826.58 452.89Z" />
	<path id="Layer" fill-rule="evenodd" class="shp0" d="M890.39 381.37C915.05 381.37 926 397.94 926 416.67C926 435.4 915.46 453 890.39 453L861 453L861 381.37L890.39 381.37ZM876.78 438.26L890.39 438.26C905.95 438.26 910.24 426.8 910.24 416.46C910.24 406.12 905.33 395.8 890.39 395.8L876.78 395.8L876.78 438.26Z" />
</svg>