<svg id="Layer_1" data-name="Layer 1" xmlns="http://www.w3.org/2000/svg" viewBox="0 0 960 560"><defs><style>.cls-1{fill:#675f5c;}.cls-2{fill:#fc7233;}</style></defs><title>Garrett Dowd-SF 6</title><path class="cls-1" d="M101.12,419.82A51,51,0,0,1,100,431a12.34,12.34,0,0,1-4.71,7.52q-4.08,3.12-12.78,4-3.5.38-10.45.37c-3.7,0-6.87-.1-9.53-.31a33.68,33.68,0,0,1-7.7-1.52,16.2,16.2,0,0,1-6.27-3.62q-6-5.19-6-19.05v-16.7a59.85,59.85,0,0,1,.65-9.47,25.66,25.66,0,0,1,1.93-6.73,16,16,0,0,1,9.64-8.64,33.31,33.31,0,0,1,7.95-1.69q4.11-.37,9.33-.37H77a75.44,75.44,0,0,1,10.71.65,15.76,15.76,0,0,1,7.61,3.21q5.63,4.41,5.63,14.81v2.16H88.16q0-5.52-2.4-7.68a8.39,8.39,0,0,0-4.5-1.75,64.61,64.61,0,0,0-8.28-.41,63,63,0,0,0-9.72.54,10.14,10.14,0,0,0-4.94,2.06q-2.77,2.76-2.77,12.24v16.07q0,9.45,2.6,12.44c1.39,1.29,3.6,2.16,6.61,2.59q2.51.18,7.5.18a41.53,41.53,0,0,1,4.56.17,25.83,25.83,0,0,0,5.27-.66,9.44,9.44,0,0,0,3.67-2,6.82,6.82,0,0,0,2-4.11,45,45,0,0,0,.43-6.89v-1.87H71.28v-9.73h29.84Z"/><path class="cls-1" d="M140,375.32h18.85l22.87,67H168.58l-4.28-12.61H135.25L131,442.34H117.64L133,395.87ZM138.11,420h23.13l-11.52-34.95h-.09Z"/><path class="cls-1" d="M233.18,375.32q13,0,17.61,5.08,4,4.55,4,14.84,0,11.16-3,14.66c-1.76,2.16-4.73,3.63-8.91,4.38v.26q5.88.57,8.91,4,2.41,3.85,2.42,11.37v12.41H241.34v-10.1a40.19,40.19,0,0,0-.34-5.79,7.07,7.07,0,0,0-1.71-3.84,6.25,6.25,0,0,0-3.24-2,22.16,22.16,0,0,0-5-.45h-18v22.17H200.22v-67Zm-2,11H213.09v22.86H231.6a18.64,18.64,0,0,0,5.18-.55,7.41,7.41,0,0,0,3.23-2q1.88-2.43,1.87-9.3c0-4.22-.5-7.08-1.52-8.59a5.68,5.68,0,0,0-3.42-2A30.23,30.23,0,0,0,231.23,386.32Z"/><path class="cls-1" d="M311.18,375.32q13,0,17.6,5.08,4,4.55,4,14.84,0,11.16-3,14.66c-1.76,2.16-4.73,3.63-8.91,4.38v.26q5.88.57,8.91,4,2.42,3.85,2.41,11.37v12.41H319.34v-10.1a41.69,41.69,0,0,0-.34-5.79,7.16,7.16,0,0,0-1.72-3.84,6.17,6.17,0,0,0-3.24-2,22,22,0,0,0-5-.45h-18v22.17H278.22v-67Zm-1.95,11H291.09v22.86H309.6a18.56,18.56,0,0,0,5.17-.55,7.44,7.44,0,0,0,3.24-2q1.88-2.43,1.87-9.3,0-6.33-1.53-8.59a5.69,5.69,0,0,0-3.41-2A30.3,30.3,0,0,0,309.23,386.32Z"/><path class="cls-1" d="M355.67,442.34v-67h46v11H368.54v16.8H400v10.44H368.54v17.78h33.33v11Z"/><path class="cls-1" d="M439.2,442.34v-56H419.64v-11h52.18v11H452.08v56Z"/><path class="cls-1" d="M505.14,442.34v-56H485.57v-11h52.18v11H518v56Z"/><path class="cls-1" d="M636.48,442.34H601.64v-67H633.9q17.73,0,23,9.56,3.13,5.88,3.14,16.45v14.28q0,17.83-10.1,23.78a21,21,0,0,1-6.22,2.15A36.47,36.47,0,0,1,636.48,442.34Zm-2.58-11a18.86,18.86,0,0,0,6.28-.87,9.13,9.13,0,0,0,4.35-3.69c1.73-2.42,2.59-6.72,2.59-12.87v-12a40.45,40.45,0,0,0-.77-9.05,7.41,7.41,0,0,0-3.83-4.81q-3.06-1.69-9.51-1.69h-18.5v45Z"/><path class="cls-1" d="M708.66,374.78c3.49,0,6.75.14,9.76.42a33.15,33.15,0,0,1,8.64,2,12.13,12.13,0,0,1,6.09,4.58,19,19,0,0,1,2.62,5.11q1.59,4,1.59,11.68v21.62a30,30,0,0,1-1.15,9.38A25.75,25.75,0,0,1,733,435.9a13.58,13.58,0,0,1-6.55,4.74,32.54,32.54,0,0,1-8.7,1.89q-4.47.35-10.76.35a63.61,63.61,0,0,1-12.91-1.11,15.61,15.61,0,0,1-8.54-4.71q-5.09-5.08-5.09-18.85V399.89a64.14,64.14,0,0,1,.75-10.37,19.43,19.43,0,0,1,3.09-7.94,13,13,0,0,1,6.22-4.56,31.31,31.31,0,0,1,8.35-1.87Q703.14,374.78,708.66,374.78Zm.18,11a38.79,38.79,0,0,0-9.61.91,6.32,6.32,0,0,0-4.5,3.48,27.32,27.32,0,0,0-1.7,8.94,10.33,10.33,0,0,1,.17,2v15.9q0,8.25,1.88,11.35a6.76,6.76,0,0,0,4.49,2.91,61,61,0,0,0,9,.75,42.13,42.13,0,0,0,8.91-.9,8.7,8.7,0,0,0,4.68-2.76,12.28,12.28,0,0,0,1.6-4.22,27.06,27.06,0,0,0,.63-6V398c0-4.23-.74-7.27-2.23-9.1-1.47-1.55-3.79-2.54-7-3Q712.25,385.77,708.84,385.77Z"/><path class="cls-1" d="M771.29,442.34l-17.41-67h13l13.94,56.57h.35l15.36-56.57h14.84l15,56.57h.37l14.47-56.57h12.87l-18,67H817.42L804,391.22h-.35l-13.86,51.12Z"/><path class="cls-1" d="M907.39,442.34H872.56v-67h32.26q17.73,0,23,9.56,3.14,5.88,3.14,16.45v14.28q0,17.83-10.1,23.78a21,21,0,0,1-6.22,2.15A36.48,36.48,0,0,1,907.39,442.34Zm-2.57-11a18.9,18.9,0,0,0,6.28-.87,9.13,9.13,0,0,0,4.35-3.69c1.73-2.42,2.59-6.72,2.59-12.87v-12a40.45,40.45,0,0,0-.77-9.05,7.41,7.41,0,0,0-3.83-4.81q-3.06-1.69-9.51-1.69h-18.5v45Z"/><path class="cls-2" d="M660.4,116.37C657.54,106.08,653,97.54,646.78,91a53.53,53.53,0,0,0-23.71-14.3c-9.16-2.78-20.17-4.2-32.73-4.2H383.25a66.32,66.32,0,0,0-28.13,6.32,77.77,77.77,0,0,0-23.68,17,82.54,82.54,0,0,0-16.31,25.44A81.62,81.62,0,0,0,309,152.72v94a82.8,82.8,0,0,0,22.42,56.86,77.67,77.67,0,0,0,23.68,17A66.14,66.14,0,0,0,383.25,327h92.13V183.16H391.49v42.73h46.14V284H387.24a32.7,32.7,0,0,1-14.76-3.22,34.85,34.85,0,0,1-11.06-8.53,38.69,38.69,0,0,1-7-12.06A39.4,39.4,0,0,1,352,246.74v-94a39.4,39.4,0,0,1,2.45-13.42,38.79,38.79,0,0,1,7-12.08,35,35,0,0,1,11.06-8.52,32.7,32.7,0,0,1,14.76-3.22H593.58a39.15,39.15,0,0,1,14.28,2.27,22.42,22.42,0,0,1,8.83,6,24.41,24.41,0,0,1,5,9.36,45.29,45.29,0,0,1,1.68,12.61v108a45.22,45.22,0,0,1-1.68,12.6,24.38,24.38,0,0,1-5,9.37,22.6,22.6,0,0,1-8.73,6A38.23,38.23,0,0,1,593.83,284H555.66V155.79H514.43V327h75.91c12.6,0,23.64-1.51,32.81-4.48a54.8,54.8,0,0,0,23.65-14.66c6.17-6.63,10.74-15.2,13.6-25.47,2.77-9.95,4.17-21.93,4.17-35.6v-94C664.57,138.55,663.17,126.32,660.4,116.37Z"/></svg>